PathFileType        4      (X/Y/Z)      C:\Users\pc\Desktop\IMUTRC\Sujet_02\Sujet_02_velo_80.trc         
DataRate	CameraRate	NumFrames	NumMarkers	Units	OrigDataRate	OrigDataStartFrame	OrigNumFrames
60.0	60.0	4	64	mm	60.0	827	945
Frame#	Time	pHipOrigin			pRightASI			pLeftASI			pRightCSI			pLeftCSI			pRightIschialTub			pLeftIschialTub			pSacrum			pL5SpinalProcess			pL3SpinalProcess			pT12SpinalProcess			pIJ			pT4SpinalProcess			pT8SpinalProcess			pPX			pC7SpinalProcess			pTopOfHead			pRightAuricularis			pLeftAuricularis			pBackOfHead			pRightAcromion			pLeftAcromion			pRightArmLatEpicondyle			pRightArmMedEpicondyle			pLeftArmLatEpicondyle			pLeftArmMedEpicondyle			pRightUlnarStyloid			pRightRadialStyloid			pRightOlecranon			pLeftUlnarStyloid			pLeftRadialStyloid			pLeftOlecranon			pRightTopOfHand			pRightPinky			pRightBallHand			pLeftTopOfHand			pLeftPinky			pLeftBallHand			pRightGreaterTrochanter			pRightKneeLatEpicondyle			pRightKneeMedEpicondyle			pRightPatella			pLeftGreaterTrochanter			pLeftKneeLatEpicondyle			pLeftKneeMedEpicondyle			pLeftPatella			pRightTibialTub			pRightLatMalleolus			pRightMedMalleolus			pLeftTibialTub			pLeftLatMalleolus			pLeftMedMalleolus			pRightHeelFoot			pRightFirstMetatarsal			pRightFifthMetatarsal			pRightPivotFoot			pRightHeelCenter			pRightToe			pLeftHeelFoot			pLeftFirstMetatarsal			pLeftFifthMetatarsal			pLeftPivotFoot			pLeftHeelCenter			pLeftToe			
		X1	Y1	Z1	X2	Y2	Z2	X3	Y3	Z3	X4	Y4	Z4	X5	Y5	Z5	X6	Y6	Z6	X7	Y7	Z7	X8	Y8	Z8	X9	Y9	Z9	X10	Y10	Z10	X11	Y11	Z11	X12	Y12	Z12	X13	Y13	Z13	X14	Y14	Z14	X15	Y15	Z15	X16	Y16	Z16	X17	Y17	Z17	X18	Y18	Z18	X19	Y19	Z19	X20	Y20	Z20	X21	Y21	Z21	X22	Y22	Z22	X23	Y23	Z23	X24	Y24	Z24	X25	Y25	Z25	X26	Y26	Z26	X27	Y27	Z27	X28	Y28	Z28	X29	Y29	Z29	X30	Y30	Z30	X31	Y31	Z31	X32	Y32	Z32	X33	Y33	Z33	X34	Y34	Z34	X35	Y35	Z35	X36	Y36	Z36	X37	Y37	Z37	X38	Y38	Z38	X39	Y39	Z39	X40	Y40	Z40	X41	Y41	Z41	X42	Y42	Z42	X43	Y43	Z43	X44	Y44	Z44	X45	Y45	Z45	X46	Y46	Z46	X47	Y47	Z47	X48	Y48	Z48	X49	Y49	Z49	X50	Y50	Z50	X51	Y51	Z51	X52	Y52	Z52	X53	Y53	Z53	X54	Y54	Z54	X55	Y55	Z55	X56	Y56	Z56	X57	Y57	Z57	X58	Y58	Z58	X59	Y59	Z59	X60	Y60	Z60	X61	Y61	Z61	X62	Y62	Z62	X63	Y63	Z63	X64	Y64	Z64	
827	13.767	0.0	1250.02096	7.654170837655508E-14	59.005370000000006	1367.29697	140.7877300000001	46.57128999999999	1363.96237	-147.9655899999999	-0.45214999999999284	1429.35434	116.54127000000008	-10.625490000000006	1426.64145	-120.15845999999992	-45.94958999999999	1181.40743	62.05738000000007	-51.03626	1180.05098	-56.29247999999993	-73.75672	1260.58993	3.0520000000000818	-48.88855	1376.05734	1.186890000000087	-1.6955599999999997	1488.41624	5.312740000000091	52.05359	1586.30638	11.529790000000094	315.59963	1619.53929	15.14697000000008	198.60621	1725.51159	26.168090000000095	122.75831	1670.40599	19.385870000000097	215.22267	1539.96116	5.3692600000000805	251.05544	1758.23583	31.36780000000009	490.0159	1770.33081	45.497440000000076	400.71658	1738.68041	99.30311000000007	408.45962	1767.39184	-26.620239999999917	393.82132	1801.58557	46.740850000000094	227.54372	1701.77379	227.03505000000013	243.19936	1729.86352	-179.7855299999999	283.66664	1419.40708	295.2529500000001	248.62514000000002	1395.16061	246.47743000000006	337.30276	1448.00547	-184.98523999999995	297.17458	1428.50656	-137.96179999999995	385.17398	1157.04793	349.11514000000005	422.92837	1168.97334	305.93496000000005	245.23402000000002	1409.06418	292.7096100000001	456.33084	1197.4587	-237.37794999999994	494.14176	1213.96212	-195.83679999999995	295.81813	1437.32346	-182.78101999999996	568.18107	1073.57002	308.93044	487.69864	1087.86921	348.94558	424.39786	1128.78865	333.17690000000005	644.98979	1158.40437	-150.28284999999997	574.96329	1149.644	-207.70569999999998	502.95865	1176.71639	-211.88807999999995	28.48535000000001	1232.04805	176.2813800000001	326.33816	897.62774	153.67396000000002	326.1686	894.34967	67.14405000000004	360.02322	930.57806	106.14185000000003	30.63305999999999	1227.63961	-172.8902699999999	415.52444	1007.38679	-106.53747999999997	411.56814	1012.81257	-20.177129999999963	434.68423	1053.84504	-62.22692999999997	383.70449	859.47772	111.22852000000003	291.01406	437.90579	133.44032	296.77895	438.58401	65.27893000000002	435.58853	954.31586	-69.51782999999998	118.63244999999999	672.7404	-153.73047999999997	116.88038	662.79313	-86.02124999999997	239.63869	324.13393	73.64368	424.28482	303.10903	79.97375999999998	400.20791	295.47902	164.18641	436.43631	295.98769	127.44934999999998	280.7842	317.29519	84.83436	516.8057	285.81435	149.54811	-7.6300100000000075	638.9423	-115.07177999999996	90.31666	480.91641	-114.39355999999997	82.68664999999999	499.56754	-199.96265999999997	99.58569999999999	469.44315	-161.64307999999997	14.016599999999993	602.93998	-124.84949999999996	144.46144	400.88613	-180.63330999999997	
828	13.783	0.0	1250.02096	7.654170837655508E-14	58.72278000000001	1367.12741	141.0138000000001	46.06262999999999	1364.47104	-147.7395099999999	-0.9608199999999929	1429.07175	116.93690000000008	-11.360230000000007	1426.86753	-119.76282999999991	-45.666999999999994	1181.12483	61.94434000000007	-50.81018	1179.99446	-56.40551999999993	-73.75672	1260.30733	3.1085200000000817	-49.28418	1376.00082	1.4694800000000872	-2.2042199999999994	1488.41624	5.482300000000092	51.54493	1586.30638	11.529790000000094	315.09096	1619.31322	14.24268000000008	198.2671	1725.45507	25.376830000000098	122.36268	1670.40599	18.933720000000097	214.60097	1539.84812	5.030150000000081	250.77284	1758.1228	30.237430000000092	489.78983	1770.10473	43.801880000000075	400.60354	1738.68041	97.83362000000007	408.12051	1766.93969	-28.146239999999917	393.59524	1801.41601	45.10181000000009	227.4872	1701.99987	226.18727000000013	241.56032	1729.18529	-180.74634999999992	282.76235	1419.97226	296.1007300000001	247.43825000000004	1395.49973	247.60780000000005	335.04201	1447.10117	-185.43738999999994	295.19643	1427.94138	-138.01831999999993	383.47842	1157.33052	350.35854000000006	421.1763	1169.02986	307.0653300000001	244.21669000000003	1409.68588	293.7269500000001	454.91788	1196.66744	-236.24756999999994	492.72879	1213.56649	-194.87598999999994	293.67043	1436.30612	-183.06360999999995	566.37247	1073.68305	309.89126	486.00308	1087.98225	350.01943	422.7023	1128.9582	334.3072700000001	643.46379	1157.33052	-149.37854999999996	573.32426	1148.7397	-206.68836999999996	501.43265	1176.03816	-210.87073999999996	27.92017000000001	1230.12642	176.05531000000008	308.30874	881.18084	150.11329000000003	307.51748	878.35492	63.583380000000034	343.40676	912.66168	102.58118000000005	31.93298999999999	1229.27865	-172.6076799999999	425.98037	1026.88569	-103.08984999999997	421.1763	1032.31147	-16.786009999999962	442.70987	1074.24824	-58.83581999999996	365.56204	843.25689	107.27222000000003	274.34108	421.51541	131.8578	279.42775	421.96756	63.58338000000001	445.59231	974.09735	-65.73107999999998	130.78394	690.93938	-152.48706999999996	128.35365	681.16167	-84.77783999999997	218.61378	309.94777	70.70472	402.41214	282.36672	75.90441999999999	378.44827	274.45412	160.06056	414.50711	274.22805	123.21045999999998	259.53322	301.52651	81.6128	494.5939	260.88967	144.80055	4.464969999999993	656.06743	-112.69800999999995	103.93763	498.94583	-111.62414999999997	95.45984999999999	516.97525	-197.24976999999998	112.98059999999998	487.24649	-158.87366999999998	26.394169999999992	620.12162	-122.36267999999995	158.365	418.91555	-177.75086999999996	
829	13.8	0.0	1250.02096	7.654170837655508E-14	58.32715000000001	1367.07089	141.23988000000008	45.72350999999999	1364.92319	-147.51343999999992	-1.5825199999999928	1428.84568	117.33253000000009	-11.868900000000007	1427.0936	-119.36719999999991	-45.44091999999999	1180.84224	61.77478000000007	-50.58411	1179.93794	-56.57507999999993	-73.81324	1260.08126	3.1650400000000816	-49.67981	1375.88779	1.6955600000000872	-2.6563699999999995	1488.35972	5.651860000000092	51.09278	1586.3629	11.529790000000094	314.69533	1618.91759	13.73401000000008	198.04103	1725.34203	24.811650000000096	122.02357	1670.40599	18.707640000000097	213.97926	1539.62205	4.917110000000081	250.60329	1757.89672	29.502690000000094	489.62027	1769.7091	42.501960000000075	400.54702	1738.51086	96.81629000000007	407.7814	1766.37451	-29.27660999999992	393.4822	1801.0769	43.914920000000095	227.2046	1701.99987	225.6786000000001	240.20387	1728.45055	-181.4245699999999	281.6885	1420.19834	296.89199000000013	246.08180000000002	1395.61276	248.62514000000004	332.89431	1446.08384	-185.66345999999993	293.33132	1427.20664	-137.90527999999995	381.83938	1157.33052	351.43240000000003	419.48074	1168.91683	308.08266000000003	243.02980000000002	1409.91196	294.63125000000014	453.56143	1195.76314	-234.94764999999995	491.42887	1213.11434	-193.74561999999995	291.63576	1435.28879	-183.00708999999995	564.73344	1073.62654	310.90859	484.30753	1087.86921	351.03677	421.00674	1128.90169	335.32461000000006	641.99431	1156.14363	-148.30469999999997	571.79826	1147.77888	-205.61451999999997	500.01969	1175.2469	-209.74036999999996	27.07239000000001	1228.48739	175.8857500000001	292.03139	867.89898	147.68299000000002	290.95754	865.5252	61.096560000000025	328.37282	898.07989	100.15089000000005	33.23290999999999	1230.74813	-172.32507999999993	434.79727	1045.08466	-99.58569999999996	429.20193	1050.56696	-13.338379999999963	449.26602	1093.23848	-55.388189999999966	349.34121	829.46636	104.50281000000003	256.19863	408.12051	129.65357	260.88967	408.57266	61.37915000000002	454.6918	992.57892	-61.66174999999996	144.12232	705.52116	-150.90454999999994	141.0138	696.02605	-83.19531999999997	196.28895	299.20925	67.08753	379.01345	265.07204	71.32641999999998	354.93655	256.76381	155.48255	390.88235	255.803	118.51941999999998	236.9258	289.14894	77.71302	470.57352	239.24306	139.65736	18.085939999999994	668.84062	-109.92859999999996	120.15846	513.41458	-108.40259999999999	110.83288999999999	530.65274	-194.08472999999998	129.08839	501.54569	-155.59558999999996	40.52380999999999	633.23393	-119.53674999999996	175.49012	433.89297	-174.24671999999998	
830	13.817	0.0	1250.02096	7.654170837655508E-14	57.64893000000001	1367.01437	141.5789900000001	45.610479999999995	1365.31882	-147.23083999999992	-2.373779999999993	1428.6196	117.61512000000009	-12.264530000000008	1427.26316	-119.08459999999991	-45.32787999999999	1180.55965	61.54871000000007	-50.245	1179.88143	-56.80114999999993	-73.81324	1259.85519	2.995480000000082	-50.07544	1375.77475	1.8085900000000872	-3.1085199999999995	1488.35972	5.821410000000092	50.64063	1586.3629	11.586300000000094	314.24318	1618.46544	13.73401000000008	197.87147	1725.11596	24.642090000000096	121.68446	1670.34948	18.651120000000095	213.41408	1539.33946	5.1431900000000805	250.49025	1757.61413	29.22009000000009	489.56375	1769.0874	41.76721000000008	400.54702	1738.11523	96.36414000000008	407.55532	1765.69628	-29.841799999999918	393.42569	1800.56823	43.29322000000009	226.52638	1701.83031	225.6220900000001	239.01698	1727.65929	-181.7071699999999	280.21901	1419.91574	297.45717000000013	244.44277000000002	1395.33017	249.35988000000006	330.97268	1444.95346	-185.49390999999994	291.69228	1426.41538	-137.39661999999996	380.03079	1156.99141	352.22366000000005	417.78518	1168.57771	308.93044000000003	241.44728000000003	1409.62937	295.2529500000001	452.20499	1194.63277	-233.36512999999994	490.12894	1212.3796	-192.44568999999996	289.77065	1434.04538	-182.61145999999994	563.03788	1073.34394	311.81289	482.61197	1087.58662	351.88454	419.31118	1128.56257	336.22890000000007	640.69438	1154.95674	-147.00476999999998	570.44181	1146.70503	-204.25806999999998	498.66324	1174.34261	-208.32740999999993	25.94202000000001	1227.24398	175.82924000000008	278.12783	857.66912	146.55262000000002	277.05397	855.63446	60.02271000000003	315.54311	886.71966	99.24659000000004	34.53283999999999	1231.99154	-171.98596999999992	442.31424	1061.87068	-95.85547999999996	435.92764	1067.52253	-9.66466999999996	454.6918	1110.70271	-51.71447999999996	335.15505	818.27569	103.48548000000004	236.13454	398.17324	126.43202000000001	241.10817	398.85147	58.21412000000001	462.83047	1009.93012	-57.25329999999997	159.15626	716.25969	-148.81335999999993	155.19996	707.21672	-81.10412999999997	172.83375	291.86184	62.339970000000015	354.31484	251.5641	66.23974999999999	329.84231	242.97328	150.22633	365.78811	241.27773	113.26318999999998	213.07497	280.33205	72.85242	444.85757	221.77882	134.28808999999998	33.572019999999995	676.92277	-106.87658999999995	139.37477	524.04007	-104.55932999999999	129.20142	540.31742	-190.35449999999997	148.36122	511.9451	-151.75232999999997	56.80114999999999	641.76823	-116.25866999999995	196.23243	445.30972	-170.12085999999996	
